<svg width="108" height="40" viewBox="0 0 108 40" fill="none" xmlns="http://www.w3.org/2000/svg">
<path d="M48.2834 39.9077C46.6673 39.9077 45.5173 38.9753 45.5173 37.0483V19.628C45.5173 17.701 46.6673 16.7686 48.2834 16.7686C49.884 16.7686 51.034 17.701 51.034 19.628V37.0483C51.034 38.9753 49.884 39.9077 48.2834 39.9077Z" fill="#3A3042"/>
<path d="M56.5818 20.9023C54.9812 20.9023 53.7535 19.7368 53.7535 18.2139C53.7535 16.6754 54.9812 15.5099 56.5818 15.5099C58.1824 15.5099 59.3945 16.6754 59.3945 18.2139C59.3945 19.7368 58.1824 20.9023 56.5818 20.9023ZM56.5818 39.9077C54.8413 39.9077 53.8312 38.8665 53.8312 37.0483V25.1292C53.8312 23.3265 54.8413 22.2698 56.5818 22.2698C58.3067 22.2698 59.3323 23.3265 59.3323 25.1292V37.0483C59.3323 38.8665 58.3067 39.9077 56.5818 39.9077Z" fill="#3A3042"/>
<path d="M63.4038 35.0126V26.6987H62.7978C61.5701 26.6987 60.762 25.8906 60.762 24.663C60.762 23.4198 61.5701 22.6272 62.7978 22.6272H63.4038V21.2752C63.4038 19.4881 64.4139 18.4159 66.1699 18.4159C67.9104 18.4159 68.9205 19.4881 68.9205 21.2752V22.6272H70.257C71.4846 22.6272 72.2927 23.4353 72.2927 24.663C72.2927 25.8906 71.4846 26.6987 70.257 26.6987H68.9205V33.8005C68.9205 34.8572 69.2779 35.2768 70.0549 35.3545L70.3968 35.4011C71.6245 35.5409 72.3393 36.0848 72.3393 37.3591C72.3393 38.9597 70.5988 39.7678 68.4699 39.7678H68.33C65.0666 39.7678 63.4038 38.1517 63.4038 35.0126Z" fill="#3A3042"/>
<path d="M79.1925 39.7989C76.0378 39.7989 73.5048 37.7165 73.5048 34.6552C73.5048 31.485 75.9446 29.7135 80.3269 29.4493L84.2896 29.2162V28.2527C84.2896 26.9007 83.3261 26.1548 81.8809 26.1548C80.6998 26.1548 80.0471 26.4967 78.9904 27.6466C78.3533 28.2838 77.654 28.5946 76.8148 28.5946C75.4939 28.5946 74.5615 27.771 74.5615 26.5899C74.5615 26.2014 74.6082 25.9217 74.7325 25.5954C75.4473 23.4975 78.2756 22.2232 82.1606 22.2232C86.6827 22.2232 89.6819 24.5386 89.6819 27.9419V37.1416C89.6819 39.0219 88.5475 39.9077 86.978 39.9077C85.5172 39.9077 84.476 39.1462 84.3206 37.5301V37.1416H84.2119C83.295 38.851 81.2282 39.7989 79.1925 39.7989ZM81.1505 36.0071C82.8288 36.0071 84.2896 34.9815 84.2896 33.4741V32.3086L81.2126 32.5106C79.7674 32.6194 78.9438 33.2876 78.9438 34.2822C78.9438 35.3545 79.8296 36.0071 81.1505 36.0071Z" fill="#3A3042"/>
<path d="M99.7363 39.9543C95.4162 39.9543 92.7122 38.5557 91.9197 36.6132C91.7954 36.2869 91.7177 35.9605 91.7177 35.6808C91.7177 34.4687 92.619 33.614 93.8622 33.614C94.7324 33.614 95.4628 33.9714 96.2553 34.7484C97.1877 35.774 98.2445 36.2402 99.7829 36.2402C101.213 36.2402 102.129 35.6963 102.129 34.7795C102.129 34.0336 101.586 33.6295 100.047 33.3187L97.0945 32.7282C93.7534 32.0755 92.0285 30.3195 92.0285 27.7554C92.0285 24.3522 94.9344 22.2232 99.612 22.2232C103.481 22.2232 106.092 23.8393 106.698 25.7041C106.791 25.9683 106.838 26.2325 106.838 26.4967C106.838 27.5534 106.17 28.3304 104.74 28.3304C104.119 28.3304 103.326 28.0818 102.86 27.6466C102.021 26.8075 101.182 25.9372 99.5654 25.9372C98.2289 25.9372 97.3276 26.5278 97.3276 27.4446C97.3276 28.175 97.8404 28.6412 99.4566 28.9675L102.394 29.5425C106.03 30.2574 107.6 31.6404 107.6 34.1734C107.6 37.7165 104.445 39.9543 99.7363 39.9543Z" fill="#3A3042"/>
<path d="M26.077 14.3576C27.4103 14.9083 27.9965 13.8829 27.2572 12.6441C26.18 10.8389 24.8366 8.50543 26.0669 8.50543C27.9848 8.50543 32.9046 11.1738 33.2382 8.00511C33.5717 4.83642 27.8353 1.53264 27.8353 1.53264C26.4839 0.667093 23.6827 0.155365 21.3139 0.0296448C21.3139 0.0296448 25.4832 3.58562 25.65 5.16997C25.7919 6.51829 23.7597 6.47758 21.6606 6.43553C21.2932 6.42817 20.9237 6.42077 20.5634 6.42077C18.1452 6.42077 23.5653 13.3172 23.5653 13.3172C24.4247 13.5568 25.2619 14.0209 26.077 14.3576Z" fill="#4644BE"/>
<path d="M25.8168 23.4317C25.2727 23.0085 25.4481 24.4652 25.5666 25.5163C26.1708 24.8799 26.5547 24.9888 27.3177 25.0995C26.972 24.222 26.5673 24.0153 25.8168 23.4317Z" fill="#201F47"/>
<path d="M0.300486 19.3111C0.300489 19.3142 0.300493 19.3173 0.300498 19.3203C0.309494 22.8396 5.47044 18.0722 5.47044 16.0936C5.47044 14.1133 3.86511 12.508 1.88482 12.508C1.77635 12.508 1.66901 12.5128 1.56299 12.5222C0.742838 14.6653 0.298076 16.963 0.300486 19.3111Z" fill="#35377A"/>
<path d="M28.9193 36.4596C28.1689 35.8902 28.7745 34.6705 30.6705 33.3743C31.0532 33.437 31.4473 33.4178 31.8348 33.3357C31.6666 32.6983 31.5779 31.9494 31.5779 31.0965C31.5779 29.0924 32.096 27.6332 32.9816 26.8695C32.9348 26.4531 32.6924 25.932 31.7545 25.119C31.7722 24.1329 31.3955 23.7966 30.9617 23.4091C30.8339 23.295 30.7013 23.1765 30.5722 23.0358C30.0555 23.2701 29.5762 23.5532 29.1377 23.883C29.2214 24.2957 29.3897 24.7257 29.6698 25.119C29.5345 25.08 29.4193 25.0441 29.3181 25.0126L29.3179 25.0126C28.7495 24.8358 28.6235 24.7966 27.8679 25.1056C26.6573 26.5949 25.9835 28.6195 25.9835 31.081C25.9835 35.3426 27.8816 38.2295 31.1081 39.3865C31.2055 38.6872 30.3415 37.5387 28.9193 36.4596Z" fill="#FF6A38"/>
<path fill-rule="evenodd" clip-rule="evenodd" d="M1.56299 12.5222C3.86388 6.50989 9.11928 1.71426 15.7443 0.436539C17.6827 0.062691 19.5472 -0.0641205 21.3139 0.0296448C21.3139 0.0296448 25.4832 3.58562 25.65 5.16997C25.7919 6.51829 23.7597 6.47758 21.6606 6.43553C21.2932 6.42817 20.9237 6.42077 20.5634 6.42077C18.1452 6.42077 23.5653 13.3172 23.5653 13.3172C6.30431 8.50543 4.30303 30.9666 20.2471 31.2896C22.1988 31.3291 24.75 31.1229 24.75 29.7887L24.9168 25.9528C24.9168 22.3476 25.0663 21.4228 26.0669 22.5144C26.2874 22.7548 26.5015 22.9065 26.7022 23.0486C27.1975 23.3994 27.6109 23.6922 27.8353 25.119L27.8679 25.1056C26.6573 26.5949 25.9835 28.6195 25.9835 31.081C25.9835 35.3426 27.8816 38.2295 31.1081 39.3865C31.079 39.595 30.9645 39.7636 30.7539 39.8785C29.9191 40.3337 26.3732 39.4634 24.1663 38.0439C19.491 39.0135 17.0699 39.0977 13.4928 37.5437C8.91113 39.5559 5.61098 40.8791 5.40433 39.2948C5.28257 38.3613 6.12878 37.4471 6.88531 36.6297C7.6831 35.7678 8.38115 35.0137 7.73915 34.4583C5.17732 32.2421 3.70763 30.6226 2.15225 27.3704C0.886667 24.7242 0.30457 21.9898 0.300498 19.3203C0.309494 22.8396 5.47044 18.0722 5.47044 16.0936C5.47044 14.1133 3.86511 12.508 1.88482 12.508C1.77635 12.508 1.66901 12.5128 1.56299 12.5222ZM32.9816 26.8695C33.0002 27.0346 32.988 27.1833 32.9762 27.3272C32.932 27.8653 32.8933 28.3367 34.489 29.3521C36.0503 30.3457 34.0499 32.8667 31.8348 33.3357C31.6666 32.6983 31.5779 31.9494 31.5779 31.0965C31.5779 29.0924 32.096 27.6332 32.9816 26.8695ZM30.5722 23.0358C30.4232 22.8731 30.279 22.6807 30.1529 22.431C29.5583 21.2534 28.8502 22.4663 29.1377 23.883C29.5762 23.5532 30.0555 23.2701 30.5722 23.0358Z" fill="#FF6A38"/>
<path d="M43.2951 31.081C43.2951 25.5332 39.9229 22.2232 34.6393 22.2232C33.1153 22.2232 31.7469 22.5032 30.5722 23.0358C30.7013 23.1765 30.8339 23.295 30.9617 23.4091C31.3955 23.7966 31.7722 24.1329 31.7545 25.119C32.6924 25.932 32.9348 26.4531 32.9816 26.8695C33.4419 26.4726 34.0016 26.2636 34.6393 26.2636C36.5197 26.2636 37.7162 28.0507 37.7162 31.0965C37.7162 34.189 36.5197 35.9139 34.6393 35.9139C33.2663 35.9139 32.2764 35.0093 31.8348 33.3357C31.4473 33.4178 31.0532 33.437 30.6705 33.3743C28.7745 34.6705 28.1689 35.8902 28.9193 36.4596C30.3415 37.5387 31.2055 38.6872 31.1081 39.3865C32.1524 39.761 33.3359 39.9543 34.6393 39.9543C39.9695 39.9543 43.2951 36.7375 43.2951 31.081Z" fill="#3A3042"/>
</svg>
